<svg width="197.6287109375px" height="336.8375px" xmlns="http://www.w3.org/2000/svg" viewBox="151.18564453125 -93.41874999999999 197.6287109375 336.8375" style="background: rgba(0, 0, 0, 0);" preserveAspectRatio="xMidYMid"><defs><filter id="editing-extrusion" x="-100%" y="-100%" width="300%" height="300%"><feFlood result="color1" flood-color="#ff9a9a"></feFlood><feConvolveMatrix order="8,8" divisor="1" kernelMatrix="1 0 0 0 0 0 0 0 0 1 0 0 0 0 0 0 0 0 1 0 0 0 0 0 0 0 0 1 0 0 0 0 0 0 0 0 1 0 0 0 0 0 0 0 0 1 0 0 0 0 0 0 0 0 1 0 0 0 0 0 0 0 0 1" in="SourceAlpha" result="extrude"></feConvolveMatrix><feComposite in="color1" in2="extrude" result="comp-extrude" operator="in"></feComposite><feOffset dx="4" dy="4" in="comp-extrude" result="offset-extrude"></feOffset><feMerge><feMergeNode in="offset-extrude"></feMergeNode><feMergeNode in="SourceGraphic"></feMergeNode></feMerge></filter></defs><g filter="url(#editing-extrusion)"><g transform="translate(185.19530642032623, 141.6999969482422)"><path d="M81.60-133.40L81.60-133.40L81.60-133.40Q130.60-133.40 130.60-98.80L130.60-98.80L130.60-98.80Q130.60-79.80 118.40-68.40L118.40-68.40L118.40-68.40Q106.40-57 85.40-57L85.40-57L85.40-57Q75.60-57 68-62.60L68-62.60L68-62.60Q64.40-65 62-68.20L62-68.20L62-68.20Q76.60-68.20 84.30-77.10L84.30-77.10L84.30-77.10Q92-86 92-103.40L92-103.40L92-103.40Q92-120.80 74.80-120.80L74.80-120.80L70-120.80L70-120.80Q68.80-120.80 67.80-120.60L67.80-120.60L44.80 0L1.40 0L26-131L26-131Q47.40-133 59.80-133.20L59.80-133.20L59.80-133.20Q72.20-133.40 81.60-133.40Z" fill="#ff5050"></path></g></g><style>text {
  font-size: 64px;
  font-family: Arial Black;
  dominant-baseline: central;
  text-anchor: middle;
}</style></svg>